<?xml version="1.0" standalone="no"?>
<!DOCTYPE svg PUBLIC "-//W3C//DTD SVG 20010904//EN"
 "http://www.w3.org/TR/2001/REC-SVG-20010904/DTD/svg10.dtd">

<svg version="1.0" xmlns="http://www.w3.org/2000/svg"
 width="980.000000pt" height="970.000000pt" viewBox="0 0 980.000000 970.000000"
 preserveAspectRatio="xMidYMid meet">

<style type="text/css">
    path {
        fill: #a24b9b;
        stroke: #000;
        stroke-width: 5;
    }
</style>

<g transform="translate(0.000000,970.000000) scale(0.100000,-0.100000)"
fill="#000000" stroke="none">
<path d="M978 9670 c-465 -98 -819 -431 -937 -882 -105 -402 5 -828 293 -1135
59 -64 3775 -3101 3899 -3187 129 -90 298 -160 465 -192 114 -22 318 -22 435
0 167 32 368 118 488 209 158 119 3783 3081 3833 3132 154 156 267 364 318
587 28 123 31 384 5 498 -108 476 -434 815 -898 935 -139 36 -339 44 -484 21
-173 -29 -348 -98 -483 -192 -35 -24 -719 -578 -1520 -1231 -801 -652 -1462
-1190 -1468 -1194 -7 -6 -567 445 -1507 1211 -840 683 -1533 1241 -1579 1270
-106 65 -256 123 -385 149 -133 28 -349 28 -475 1z"/>
<path d="M975 5420 c-461 -97 -816 -433 -934 -882 -105 -402 5 -828 293 -1135
59 -64 3775 -3101 3899 -3187 81 -57 202 -117 302 -150 353 -118 786 -53 1079
163 153 112 3779 3073 3843 3138 157 159 269 371 319 605 25 112 25 371 1 478
-108 475 -434 815 -898 935 -139 36 -339 44 -484 21 -173 -29 -348 -98 -483
-192 -34 -24 -718 -578 -1520 -1230 -801 -653 -1462 -1191 -1468 -1195 -7 -6
-566 444 -1507 1211 -840 683 -1533 1241 -1579 1270 -106 65 -256 123 -385
149 -134 28 -348 28 -478 1z"/>
</g>
</svg>
