<?xml version="1.0" encoding="UTF-8"?>
<!DOCTYPE svg PUBLIC "-//W3C//DTD SVG 1.1//EN" "http://www.w3.org/Graphics/SVG/1.1/DTD/svg11.dtd">
<!-- Creator: CorelDRAW 2020 (64 Bit) -->
<svg xmlns="http://www.w3.org/2000/svg" xml:space="preserve" width="210mm" height="297mm" version="1.1" style="shape-rendering:geometricPrecision; text-rendering:geometricPrecision; image-rendering:optimizeQuality; fill-rule:evenodd; clip-rule:evenodd"
viewBox="0 0 21000 29700"
 xmlns:xlink="http://www.w3.org/1999/xlink"
 xmlns:xodm="http://www.corel.com/coreldraw/odm/2003">
 <defs>
  <style type="text/css">
   <![CDATA[
    .fil0 {fill:#FEFEFE}
   ]]>
  </style>
 </defs>
 <g id="Camada_x0020_1">
  <metadata id="CorelCorpID_0Corel-Layer"/>
  <path class="fil0" d="M10091.57 10576.42c1541.19,0 2891.67,815.83 3643.63,2039.06 747.97,-450.15 1417.32,-992.78 1954.18,-1679.72 -343.55,880.66 -924.96,1600.59 -1659.11,2252.19 216.04,511.02 335.43,1072.85 335.43,1662.58 0,2360.54 -1913.58,4274.13 -4274.13,4274.13 -1107.19,0 -2116.01,-421.01 -2875.21,-1111.65 -248.65,217.53 -494.17,444.6 -734.92,683.41l2.73 -124.5c225.52,-227.18 442.4,-437.48 652.1,-633.75 -577.02,-552.46 -999.21,-1265.12 -1195.7,-2066.46 -193.02,89.9 -376.01,186.83 -546.73,292.97l-97.45 -46.22c196.19,-129.32 402.48,-250.56 616.85,-365.51 -62.61,-290.91 -95.77,-592.78 -95.77,-902.42 0,-2360.53 1913.58,-4274.11 4274.1,-4274.11zm961.91 6516.23c555.75,299.56 1095.97,359.78 1311.38,25.12 207.35,-322.09 166.94,-866.99 -66.3,-1496.21l21.22 0 111.39 0 17.96 0 159.5 0 -114.66 -161.88 56.31 -203.23 523.68 0 77.27 209.7 -155.41 155.41 212.69 0 143.34 0 541.4 0 -613.32 -1602.76 -386.85 0 -78.41 0 -145.22 0 -51.49 0 -149.71 0 157.54 157.56 -342.7 1237.25 -47.46 47.46c-152.49,-369.28 -367.17,-762.56 -633.71,-1153.56 45.98,22.76 88.99,49.19 130.03,78.03l0 -0.02 54.58 54.58 0 -193.19 0 -87.97 0 -140.14 -103.64 73.4c-87.77,-8 -177.09,-27.31 -265.76,-44.11 -134.38,-180.74 -279.42,-359.73 -434.19,-534.32 -1189.03,-1341.54 -2498.15,-1892.83 -2923.99,-1231.36 -334.33,519.34 -24.71,1645.87 699.15,2755.25l-104.11 375.95 -207.96 207.95 150.36 0 94.29 0 111.41 0 17.93 0 159.52 0 -114.67 -161.88 52.15 -188.26c158.83,224.47 334.03,446.43 523.85,660.6 31.23,35.2 62.67,70.07 94.35,104.5l100.29 143.54c150.53,210.51 409.5,652.12 607.13,509.42 197.63,-142.68 -341.58,-406.66 -483.65,-576.93 -77.5,-92.85 -167.7,-176.53 -249.17,-269.27 -166.93,-190.02 -322.28,-387.07 -464.57,-586.83l399.6 0 77.28 209.7 -155.44 155.41 212.71 0 143.35 0 541.4 0 -613.32 -1602.76 -386.88 0 -78.39 0 -145.22 0 -51.49 0 -149.71 0 157.54 157.56 -197.15 711.83c-635.8,-1019.9 -909.39,-2043.45 -606.87,-2517.55 398.85,-625.05 1647.82,-35.77 2761.5,1231.87 122.66,139.62 238.82,282.21 347.92,426.25 -44.11,-6.07 -87.81,-9.96 -130.85,-9.96 -382.72,8.95 -629.79,198.81 -629.79,496.28 0,610.52 881,546.15 881,783.55 0,190.64 -493.23,203.07 -747.55,6.04l-104.46 -104.48 0 244.65 0 111.4 0 177.46 208.26 -147.54c118.56,79.55 255.2,107.81 437.56,102.37 386.1,-9.63 749.83,-220.32 749.83,-509.87 3.2,-221.46 -248.99,-421.97 -472.39,-532.37 -223.39,-110.37 -449.89,-126.91 -449.89,-277.42 0,-105.71 98.01,-151.43 254.93,-142.48 60.65,4 116.4,14.02 168.29,28.8 303.34,433.47 540.82,872.84 696.62,1277.87l-88.5 88.5 121.43 0c209.39,582.39 243.1,1085.66 51.94,1385.24 -203.52,318.97 -637.52,350.16 -1195.03,85.85zm-204.4 -4804.56c26.22,0 47.49,21.27 47.49,47.51 0,26.24 -21.27,47.49 -47.49,47.49 -26.24,0 -47.51,-21.25 -47.51,-47.49 0,-26.24 21.27,-47.51 47.51,-47.51zm13.25 -973.31c4.6,3.19 8.6,7.19 11.76,11.79l89.45 26 -89.43 26c-3.18,4.61 -7.18,8.61 -11.78,11.79l-26.01 89.43 -26 -89.43c-4.6,-3.18 -8.6,-7.18 -11.78,-11.79l-89.43 -26 89.43 -26c3.18,-4.6 7.18,-8.6 11.78,-11.79l26 -89.44 26.01 89.44zm-663.59 86.74c27.83,0 50.37,22.54 50.37,50.37 0,27.83 -22.54,50.37 -50.37,50.37 -27.83,0 -50.37,-22.54 -50.37,-50.37 0,-27.83 22.54,-50.37 50.37,-50.37zm4.3 509.51c22.26,0 40.31,18.04 40.31,40.28 0,22.26 -18.05,40.31 -40.31,40.31 -22.23,0 -40.28,-18.05 -40.28,-40.31 0,-22.24 18.05,-40.28 40.28,-40.28zm-374.2 -192.86c22.24,0 40.31,18.05 40.31,40.29 0,22.23 -18.07,40.28 -40.31,40.28 -22.24,0 -40.28,-18.05 -40.28,-40.28 0,-22.24 18.04,-40.29 40.28,-40.29zm-129.54 -365.58c30.2,0 54.67,24.48 54.67,54.67 0,30.2 -24.47,54.68 -54.67,54.68 -30.19,0 -54.67,-24.48 -54.67,-54.68 0,-30.19 24.48,-54.67 54.67,-54.67zm256.2 -486.49c25.44,0 46.04,20.63 46.04,46.05 0,25.44 -20.6,46.04 -46.04,46.04 -25.45,0 -46.05,-20.6 -46.05,-46.04 0,-25.42 20.6,-46.05 46.05,-46.05zm-1125.43 1763.61c7.5,4.35 13.76,10.58 18.08,18.09l84.57 24.58 -84.54 24.56c-4.35,7.51 -10.61,13.79 -18.11,18.11l-24.56 84.55 -24.59 -84.55c-7.5,-4.32 -13.76,-10.6 -18.11,-18.11l-84.54 -24.56 84.57 -24.58c4.32,-7.51 10.58,-13.74 18.08,-18.09l24.59 -84.54 24.56 84.54zm-310.98 101.71c25.45,0 46.07,20.6 46.07,46.05 0,25.44 -20.62,46.07 -46.07,46.07 -25.42,0 -46.04,-20.63 -46.04,-46.07 0,-25.45 20.62,-46.05 46.04,-46.05zm-143.9 -169.84c20.65,0 37.42,16.75 37.42,37.42 0,20.67 -16.77,37.42 -37.42,37.42 -20.69,0 -37.44,-16.75 -37.44,-37.42 0,-20.67 16.75,-37.42 37.44,-37.42zm757.03 -852.05c17.49,0 31.66,14.17 31.66,31.66 0,17.46 -14.17,31.65 -31.66,31.65 -17.46,0 -31.64,-14.19 -31.64,-31.65 0,-17.49 14.18,-31.66 31.64,-31.66zm110.83 69.08c19.87,0 35.96,16.09 35.96,35.96 0,19.87 -16.09,35.96 -35.96,35.96 -19.87,0 -35.98,-16.09 -35.98,-35.96 0,-19.87 16.11,-35.96 35.98,-35.96zm115.15 83.49c15.12,0 27.36,12.24 27.36,27.33 0,15.12 -12.24,27.36 -27.36,27.36 -15.1,0 -27.34,-12.24 -27.34,-27.36 0,-15.09 12.24,-27.33 27.34,-27.33zm-175.61 106.48c23.06,0 41.75,18.69 41.75,41.75 0,23.03 -18.69,41.72 -41.75,41.72 -23.03,0 -41.72,-18.69 -41.72,-41.72 0,-23.06 18.69,-41.75 41.72,-41.75zm4042.05 4076.5l24.26 83.49c8.15,4.54 14.92,11.31 19.46,19.47l83.49 24.28 -83.49 24.26c-4.54,8.17 -11.29,14.9 -19.46,19.46l-24.26 83.49 -24.26 -83.49c-8.18,-4.54 -14.93,-11.31 -19.47,-19.46l-83.49 -24.26 83.49 -24.28c4.54,-8.16 11.29,-14.93 19.47,-19.47l24.26 -83.49zm-382.83 976.71l20.28 69.79c6.32,3.61 11.57,8.86 15.18,15.16l69.79 20.28 -69.79 20.28c-3.61,6.33 -8.86,11.57 -15.18,15.19l-20.28 69.79 -20.28 -69.79c-6.31,-3.62 -11.55,-8.86 -15.19,-15.19l-69.79 -20.28 69.79 -20.28c3.62,-6.3 8.88,-11.55 15.19,-15.16l20.28 -69.79zm-4454.4 854.56l20.79 71.52c5.25,3.24 9.7,7.7 12.95,12.94l71.51 20.8 -71.51 20.78c-3.25,5.24 -7.7,9.7 -12.95,12.94l-20.79 71.52 -20.78 -71.52c-5.27,-3.24 -9.7,-7.7 -12.95,-12.94l-71.51 -20.78 71.51 -20.8c3.25,-5.24 7.68,-9.7 12.95,-12.94l20.78 -71.52zm16.56 -2173.73c18.99,0 34.36,15.4 34.36,34.37 0,18.99 -15.37,34.39 -34.36,34.39 -18.99,0 -34.37,-15.4 -34.37,-34.39 0,-18.97 15.38,-34.37 34.37,-34.37zm14 804.65c25.31,0 45.83,20.52 45.83,45.83 0,25.32 -20.52,45.83 -45.83,45.83 -25.34,0 -45.86,-20.51 -45.86,-45.83 0,-25.31 20.52,-45.83 45.86,-45.83zm-471.12 415.05c22.52,0 40.74,18.23 40.74,40.73 0,22.5 -18.22,40.74 -40.74,40.74 -22.47,0 -40.71,-18.24 -40.71,-40.74 0,-22.5 18.24,-40.73 40.71,-40.73zm-663.3 -206.26c26.02,0 47.1,21.08 47.1,47.1 0,26.03 -21.08,47.13 -47.1,47.13 -26.03,0 -47.1,-21.1 -47.1,-47.13 0,-26.02 21.07,-47.1 47.1,-47.1zm-469.83 45.86c25.34,0 45.83,20.49 45.83,45.83 0,25.33 -20.49,45.83 -45.83,45.83 -25.31,0 -45.83,-20.5 -45.83,-45.83 0,-25.34 20.52,-45.83 45.83,-45.83zm409.97 206.23c22.5,0 40.74,18.24 40.74,40.73 0,22.5 -18.24,40.72 -40.74,40.72 -22.49,0 -40.71,-18.22 -40.71,-40.72 0,-22.49 18.22,-40.73 40.71,-40.73zm169.35 114.59c31.64,0 57.3,25.68 57.3,57.29 0,31.64 -25.66,57.3 -57.3,57.3 -31.64,0 -57.29,-25.66 -57.29,-57.3 0,-31.61 25.65,-57.29 57.29,-57.29zm1301.21 25.46c26.02,0 47.1,21.08 47.1,47.13 0,26.02 -21.08,47.1 -47.1,47.1 -26.02,0 -47.1,-21.08 -47.1,-47.1 0,-26.05 21.08,-47.13 47.1,-47.13zm-430.34 328.48c21.81,0 39.47,17.66 39.47,39.49 0,21.81 -17.66,39.47 -39.47,39.47 -21.81,0 -39.46,-17.66 -39.46,-39.47 0,-21.83 17.65,-39.49 39.46,-39.49zm482.54 96.76c23.91,0 43.27,19.38 43.27,43.28 0,23.91 -19.36,43.29 -43.27,43.29 -23.92,0 -43.28,-19.38 -43.28,-43.29 0,-23.9 19.36,-43.28 43.28,-43.28zm960.29 -99.23c20.91,0 37.84,16.93 37.84,37.83 0,20.91 -16.93,37.83 -37.84,37.83 -20.88,0 -37.83,-16.92 -37.83,-37.83 0,-20.9 16.95,-37.83 37.83,-37.83zm842.79 -296.56c23.4,0 42.36,18.97 42.36,42.37 0,23.42 -18.96,42.37 -42.36,42.37 -23.4,0 -42.37,-18.95 -42.37,-42.37 0,-23.4 18.97,-42.37 42.37,-42.37zm1246.75 -705.1c21.72,0 39.36,17.62 39.36,39.36 0,21.7 -17.64,39.32 -39.36,39.32 -21.7,0 -39.32,-17.62 -39.32,-39.32 0,-21.74 17.62,-39.36 39.32,-39.36zm-9.06 484.2c23.4,0 42.37,18.94 42.37,42.37 0,23.4 -18.97,42.34 -42.37,42.34 -23.42,0 -42.37,-18.94 -42.37,-42.34 0,-23.43 18.95,-42.37 42.37,-42.37zm164.92 935.07c24.22,0 43.87,19.63 43.87,43.87 0,24.22 -19.65,43.87 -43.87,43.87 -24.24,0 -43.87,-19.65 -43.87,-43.87 0,-24.24 19.63,-43.87 43.87,-43.87zm136.18 -1646.21c25.9,0 46.89,20.99 46.89,46.91 0,25.91 -20.99,46.9 -46.89,46.9 -25.93,0 -46.9,-20.99 -46.9,-46.9 0,-25.92 20.97,-46.91 46.9,-46.91zm18.13 299.6c22.57,0 40.85,18.26 40.85,40.82 0,22.56 -18.28,40.84 -40.85,40.84 -22.56,0 -40.84,-18.28 -40.84,-40.84 0,-22.56 18.28,-40.82 40.84,-40.82zm573.47 -535.66c20.07,0 36.31,16.26 36.31,36.32 0,20.05 -16.24,36.31 -36.31,36.31 -20.04,0 -36.3,-16.26 -36.3,-36.31 0,-20.06 16.26,-36.32 36.3,-36.32zm81.71 214.85c26.73,0 48.41,21.68 48.41,48.42 0,26.73 -21.68,48.41 -48.41,48.41 -26.73,0 -48.41,-21.68 -48.41,-48.41 0,-26.74 21.68,-48.42 48.41,-48.42zm384.31 335.9c18.37,0 33.27,14.91 33.27,33.28 0,18.38 -14.9,33.29 -33.27,33.29 -18.37,0 -33.27,-14.91 -33.27,-33.29 0,-18.37 14.9,-33.28 33.27,-33.28zm219.42 -90.78c27.57,0 49.92,22.37 49.92,49.94 0,27.6 -22.35,49.94 -49.92,49.94 -27.6,0 -49.94,-22.34 -49.94,-49.94 0,-27.57 22.34,-49.94 49.94,-49.94zm-272.37 650.62c22.56,0 40.84,18.28 40.84,40.84 0,22.58 -18.28,40.86 -40.84,40.86 -22.56,0 -40.84,-18.28 -40.84,-40.86 0,-22.56 18.28,-40.84 40.84,-40.84zm-332.89 -208.77c19.21,0 34.78,15.57 34.78,34.77 0,19.21 -15.57,34.78 -34.78,34.78 -19.2,0 -34.78,-15.57 -34.78,-34.78 0,-19.2 15.58,-34.77 34.78,-34.77zm234.45 -1830.42l-219.54 -595.92 -165.05 595.92 384.59 0zm-3629.1 0l-219.55 -595.92 -165.05 595.92 384.6 0zm-2707.53 -1022.15l206.6 0 354.59 0 578.18 978.43 0 -815.1 -163.33 -163.33 163.33 0 41.92 0 141.17 0 47.12 0 143.03 0 -143.03 143.02 0 1224.97 138.73 234.77 -138.73 0 -230.21 0 -315.83 0 -616.94 -1044.02 0 856.63 187.4 187.39 -187.4 0 -35.63 0 -65.82 0 -105.15 0 -185.09 0 185.09 -185.09 0 -1208.58 -123.55 -209.09 123.55 0z"/>
 </g>
</svg>
