<?xml version="1.0" encoding="UTF-8"?>
<!DOCTYPE svg PUBLIC "-//W3C//DTD SVG 1.1//EN" "http://www.w3.org/Graphics/SVG/1.1/DTD/svg11.dtd">
<!-- Creator: CorelDRAW 2020 (64 Bit) -->
<svg xmlns="http://www.w3.org/2000/svg" xml:space="preserve" width="210mm" height="297mm" version="1.1" style="shape-rendering:geometricPrecision; text-rendering:geometricPrecision; image-rendering:optimizeQuality; fill-rule:evenodd; clip-rule:evenodd"
viewBox="0 0 21000 29700"
 xmlns:xlink="http://www.w3.org/1999/xlink"
 xmlns:xodm="http://www.corel.com/coreldraw/odm/2003">
 <defs>
  <style type="text/css">
   <![CDATA[
    .fil0 {fill:#FEFEFE}
   ]]>
  </style>
 </defs>
 <g id="Camada_x0020_1">
  <metadata id="CorelCorpID_0Corel-Layer"/>
  <g id="_2199335620736">
   <path class="fil0" d="M8203.95 11384.68c-955.71,0 -1801.13,472.24 -2315.63,1196.11 489.68,-606.33 1244.27,-995.02 2090.94,-995.02 1476.04,0 2672.61,1181.04 2672.61,2637.92 0,1456.88 -1196.57,2637.92 -2672.61,2637.92 -846.67,0 -1601.26,-388.69 -2090.94,-995.02 514.5,723.87 1359.92,1196.11 2315.63,1196.11 1567.94,0 2839.01,-1271.07 2839.01,-2839.01 0,-1567.94 -1271.07,-2839.01 -2839.01,-2839.01z"/>
   <path class="fil0" d="M7997.56 12169.9c-1095.41,0 -1983.38,876.46 -1983.38,1957.62 0,1081.16 887.97,1957.62 1983.38,1957.62 476.14,0 913.04,-165.67 1254.9,-441.71 -299.32,182.85 -656.17,289.09 -1039.37,289.09 -1057.25,0 -1914.28,-808.13 -1914.28,-1805 0,-996.87 857.03,-1805 1914.28,-1805 383.2,0 740.05,106.24 1039.37,289.09 -341.86,-276.04 -778.76,-441.71 -1254.9,-441.71z"/>
   <circle class="fil0" cx="9857.47" cy="12099.07" r="404.84"/>
   <circle class="fil0" cx="10111.46" cy="16096.92" r="603.29"/>
   <circle class="fil0" cx="8120.15" cy="14127.52" r="550.33"/>
   <circle class="fil0" cx="7026.83" cy="12527.13" r="388.43"/>
   <circle class="fil0" cx="6825.3" cy="15483.1" r="394.42"/>
  </g>
 </g>
</svg>
